<svg width="32" height="32" viewBox="0 0 32 32" fill="none" xmlns="http://www.w3.org/2000/svg">
<path d="M16 5.33331C17.4145 5.33331 18.771 5.89522 19.7712 6.89541C20.7714 7.8956 21.3333 9.25216 21.3333 10.6666C21.3333 12.0811 20.7714 13.4377 19.7712 14.4379C18.771 15.4381 17.4145 16 16 16C14.5855 16 13.2289 15.4381 12.2287 14.4379C11.2285 13.4377 10.6666 12.0811 10.6666 10.6666C10.6666 9.25216 11.2285 7.8956 12.2287 6.89541C13.2289 5.89522 14.5855 5.33331 16 5.33331ZM16 7.99998C15.2927 7.99998 14.6145 8.28093 14.1144 8.78103C13.6143 9.28113 13.3333 9.9594 13.3333 10.6666C13.3333 11.3739 13.6143 12.0522 14.1144 12.5523C14.6145 13.0524 15.2927 13.3333 16 13.3333C16.7072 13.3333 17.3855 13.0524 17.8856 12.5523C18.3857 12.0522 18.6666 11.3739 18.6666 10.6666C18.6666 9.9594 18.3857 9.28113 17.8856 8.78103C17.3855 8.28093 16.7072 7.99998 16 7.99998ZM16 17.3333C19.56 17.3333 26.6666 19.1066 26.6666 22.6666V26.6666H5.33331V22.6666C5.33331 19.1066 12.44 17.3333 16 17.3333ZM16 19.8666C12.04 19.8666 7.86665 21.8133 7.86665 22.6666V24.1333H24.1333V22.6666C24.1333 21.8133 19.96 19.8666 16 19.8666Z" fill="#E2E2E2"/>
</svg>
