<svg width="32" height="32" viewBox="0 0 32 32" fill="none" xmlns="http://www.w3.org/2000/svg">
<path d="M16 5.33331C17.4145 5.33331 18.771 5.89522 19.7712 6.89541C20.7714 7.8956 21.3333 9.25216 21.3333 10.6666C21.3333 12.0811 20.7714 13.4377 19.7712 14.4379C18.771 15.4381 17.4145 16 16 16C14.5855 16 13.2289 15.4381 12.2287 14.4379C11.2285 13.4377 10.6666 12.0811 10.6666 10.6666C10.6666 9.25216 11.2285 7.8956 12.2287 6.89541C13.2289 5.89522 14.5855 5.33331 16 5.33331ZM16 18.6666C21.8933 18.6666 26.6666 21.0533 26.6666 24V26.6666H5.33331V24C5.33331 21.0533 10.1066 18.6666 16 18.6666Z" fill="#6FCF97"/>
</svg>
