<svg width="100" height="100" viewBox="0 0 100 100" fill="none" xmlns="http://www.w3.org/2000/svg">
<path d="M15.625 18.75H9.375C7.64911 18.75 6.25 20.1491 6.25 21.875V87.5C6.25 89.2259 7.64911 90.625 9.375 90.625H15.625C17.3509 90.625 18.75 89.2259 18.75 87.5V21.875C18.75 20.1491 17.3509 18.75 15.625 18.75Z" stroke="black" stroke-width="4" stroke-linejoin="round"/>
<path d="M21.875 43.75H46.875M21.875 78.125H46.875" stroke="black" stroke-width="4" stroke-linecap="round" stroke-linejoin="round"/>
<path d="M43.75 31.25H25C23.2741 31.25 21.875 32.6491 21.875 34.375V87.5C21.875 89.2259 23.2741 90.625 25 90.625H43.75C45.4759 90.625 46.875 89.2259 46.875 87.5V34.375C46.875 32.6491 45.4759 31.25 43.75 31.25Z" stroke="black" stroke-width="4" stroke-linejoin="round"/>
<path d="M65.625 9.375H53.125C51.3991 9.375 50 10.7741 50 12.5V87.5C50 89.2259 51.3991 90.625 53.125 90.625H65.625C67.3509 90.625 68.75 89.2259 68.75 87.5V12.5C68.75 10.7741 67.3509 9.375 65.625 9.375Z" stroke="black" stroke-width="4" stroke-linejoin="round"/>
<path d="M82.5117 18.7714L74.6211 19.6015C72.4492 19.83 70.875 21.8613 71.1191 24.1132L77.9395 86.9238C78.1855 89.1757 80.1602 90.83 82.332 90.6035L90.2227 89.7734C92.3945 89.5449 93.9688 87.5136 93.7246 85.2617L86.9141 22.4609C86.6582 20.1992 84.6836 18.5429 82.5117 18.7714Z" stroke="black" stroke-width="4" stroke-linejoin="round"/>
</svg>
